<svg width="495" height="175" xmlns="http://www.w3.org/2000/svg">
  <rect width="495" height="175" rx="8" fill="#161616" stroke="#2A2A2A" stroke-width="1"/>

  <!-- keyboard icon -->
  <g transform="translate(22,16)" fill="none" stroke="#FF6B35" stroke-width="1.5" stroke-linecap="round" stroke-linejoin="round">
    <rect x="1" y="3" width="20" height="14" rx="2"/>
    <path d="M5 7h.01M9 7h.01M13 7h.01M17 7h.01M7 11h.01M11 11h.01M15 11h.01M6 15h10"/>
  </g>

  <!-- header -->
  <text x="50" y="30" font-family="'Segoe UI',Helvetica,Arial,sans-serif" font-size="14" font-weight="600" fill="#F5F5F5">MonkeyType</text>
  <text x="144" y="30" font-family="'Segoe UI',Helvetica,Arial,sans-serif" font-size="14" fill="#444444"> · </text>
  <text x="158" y="30" font-family="'Courier New',Courier,monospace" font-size="13" fill="#FF6B35">011sam110</text>

  <!-- separator -->
  <line x1="22" y1="42" x2="473" y2="42" stroke="#2A2A2A" stroke-width="1"/>

  <!-- column dividers -->
  <line x1="138" y1="55" x2="138" y2="158" stroke="#2A2A2A" stroke-width="1"/>
  <line x1="253" y1="55" x2="253" y2="158" stroke="#2A2A2A" stroke-width="1"/>
  <line x1="368" y1="55" x2="368" y2="158" stroke="#2A2A2A" stroke-width="1"/>

  <!-- stats -->
  
  <text x="80" y="98" text-anchor="middle" font-family="'Courier New',Courier,monospace" font-size="30" font-weight="700" fill="#FF6B35">156</text>
  <text x="80" y="116" text-anchor="middle" font-family="'Segoe UI',Helvetica,Arial,sans-serif" font-size="11" fill="#888888">wpm</text>
  <text x="80" y="133" text-anchor="middle" font-family="'Segoe UI',Helvetica,Arial,sans-serif" font-size="12" fill="#AAAAAA">15 sec</text>
  <text x="80" y="150" text-anchor="middle" font-family="'Courier New',Courier,monospace" font-size="11" fill="#666666">99% acc</text>
  <text x="195" y="98" text-anchor="middle" font-family="'Courier New',Courier,monospace" font-size="30" font-weight="700" fill="#FF6B35">135</text>
  <text x="195" y="116" text-anchor="middle" font-family="'Segoe UI',Helvetica,Arial,sans-serif" font-size="11" fill="#888888">wpm</text>
  <text x="195" y="133" text-anchor="middle" font-family="'Segoe UI',Helvetica,Arial,sans-serif" font-size="12" fill="#AAAAAA">30 sec</text>
  <text x="195" y="150" text-anchor="middle" font-family="'Courier New',Courier,monospace" font-size="11" fill="#666666">93% acc</text>
  <text x="310" y="98" text-anchor="middle" font-family="'Courier New',Courier,monospace" font-size="30" font-weight="700" fill="#FF6B35">152</text>
  <text x="310" y="116" text-anchor="middle" font-family="'Segoe UI',Helvetica,Arial,sans-serif" font-size="11" fill="#888888">wpm</text>
  <text x="310" y="133" text-anchor="middle" font-family="'Segoe UI',Helvetica,Arial,sans-serif" font-size="12" fill="#AAAAAA">25 words</text>
  <text x="310" y="150" text-anchor="middle" font-family="'Courier New',Courier,monospace" font-size="11" fill="#666666">95% acc</text>
  <text x="420" y="98" text-anchor="middle" font-family="'Courier New',Courier,monospace" font-size="30" font-weight="700" fill="#FF6B35">131</text>
  <text x="420" y="116" text-anchor="middle" font-family="'Segoe UI',Helvetica,Arial,sans-serif" font-size="11" fill="#888888">wpm</text>
  <text x="420" y="133" text-anchor="middle" font-family="'Segoe UI',Helvetica,Arial,sans-serif" font-size="12" fill="#AAAAAA">100 words</text>
  <text x="420" y="150" text-anchor="middle" font-family="'Courier New',Courier,monospace" font-size="11" fill="#666666">96% acc</text>

  <!-- footer separator -->
  <line x1="22" y1="160" x2="473" y2="160" stroke="#2A2A2A" stroke-width="1"/>

  <!-- footer -->
  <text x="247" y="171" text-anchor="middle" font-family="'Segoe UI',Helvetica,Arial,sans-serif" font-size="10" fill="#555555">53 tests completed · auto-updated daily</text>
</svg>